<svg width="512" height="512" viewBox="0 0 512 512" fill="none" xmlns="http://www.w3.org/2000/svg">
<path d="M47.2739 31.4921C48.4383 31.4858 49.6027 31.4796 50.8024 31.4732C54.0353 31.4599 57.2676 31.4647 60.5004 31.4771C63.9865 31.4861 67.4725 31.4722 70.9586 31.4612C77.7882 31.4434 84.6175 31.4472 91.447 31.4588C96.9966 31.4679 102.546 31.4691 108.096 31.4647C108.885 31.4641 109.674 31.4635 110.487 31.4629C112.091 31.4616 113.694 31.4603 115.297 31.459C130.338 31.4476 145.379 31.4607 160.42 31.4822C173.331 31.5001 186.242 31.497 199.153 31.4785C214.139 31.4571 229.126 31.4487 244.112 31.461C245.709 31.4622 247.307 31.4635 248.904 31.4647C249.69 31.4654 250.476 31.466 251.286 31.4666C256.83 31.4701 262.374 31.4642 267.919 31.4548C274.673 31.4436 281.428 31.4466 288.182 31.4679C291.63 31.4785 295.077 31.4825 298.525 31.4693C302.259 31.4585 305.992 31.4721 309.726 31.4921C310.821 31.4831 311.915 31.4742 313.043 31.465C320.252 31.5404 320.252 31.5404 323.675 33.6434C325.385 36.6849 325.493 38.7235 325.481 42.2136C325.489 44.1276 325.489 44.1276 325.498 46.0803C325.484 47.492 325.469 48.9037 325.454 50.3154C325.453 51.8037 325.454 53.2919 325.456 54.7802C325.457 58.8193 325.434 62.8579 325.406 66.8969C325.381 71.1183 325.378 75.3396 325.374 79.5611C325.361 87.5545 325.328 95.5476 325.288 103.541C325.243 112.641 325.221 121.741 325.201 130.842C325.16 149.561 325.089 168.281 325 187C326.162 186.994 326.162 186.994 327.347 186.989C346.184 186.901 365.02 186.834 383.857 186.793C392.966 186.772 402.075 186.744 411.184 186.698C419.123 186.658 427.061 186.633 435 186.624C439.204 186.618 443.408 186.606 447.613 186.577C451.569 186.55 455.525 186.542 459.481 186.548C460.934 186.546 462.387 186.538 463.84 186.523C465.822 186.503 467.804 186.51 469.786 186.519C470.896 186.515 472.006 186.512 473.15 186.508C476 187 476 187 478.357 188.325C481.054 192.715 480.549 197.224 480.508 202.274C480.517 204.02 480.517 204.02 480.527 205.802C480.54 209.035 480.535 212.268 480.523 215.5C480.514 218.986 480.528 222.472 480.539 225.959C480.557 232.788 480.553 239.617 480.541 246.447C480.532 251.997 480.531 257.546 480.535 263.096C480.536 263.885 480.537 264.674 480.537 265.487C480.538 267.091 480.54 268.694 480.541 270.297C480.552 285.338 480.539 300.379 480.518 315.42C480.5 328.331 480.503 341.242 480.522 354.153C480.543 369.139 480.551 384.126 480.539 399.112C480.538 400.709 480.537 402.307 480.535 403.904C480.534 405.083 480.534 405.083 480.533 406.286C480.53 411.83 480.536 417.374 480.545 422.919C480.556 429.673 480.553 436.428 480.532 443.182C480.522 446.63 480.518 450.077 480.531 453.525C480.542 457.259 480.528 460.992 480.508 464.726C480.521 466.368 480.521 466.368 480.535 468.043C480.493 472.03 480.459 475.076 478.673 478.673C474.189 480.899 469.66 480.548 464.726 480.508C463.562 480.514 462.397 480.52 461.198 480.527C457.965 480.54 454.733 480.535 451.5 480.523C448.014 480.514 444.528 480.528 441.041 480.539C434.212 480.557 427.383 480.553 420.553 480.541C415.004 480.532 409.454 480.531 403.904 480.535C403.115 480.536 402.326 480.536 401.513 480.537C399.909 480.538 398.306 480.54 396.703 480.541C381.662 480.552 366.621 480.539 351.58 480.518C338.669 480.5 325.758 480.503 312.847 480.521C297.861 480.543 282.875 480.551 267.888 480.539C266.291 480.538 264.693 480.536 263.096 480.535C262.31 480.535 261.524 480.534 260.714 480.533C255.17 480.53 249.626 480.536 244.082 480.545C237.327 480.556 230.572 480.553 223.818 480.532C220.37 480.522 216.923 480.517 213.475 480.531C209.741 480.542 206.008 480.528 202.274 480.508C201.179 480.517 200.085 480.526 198.957 480.535C191.748 480.46 191.748 480.46 188.326 478.357C186.615 475.315 186.507 473.277 186.519 469.786C186.514 468.51 186.508 467.234 186.502 465.92C186.517 464.508 186.531 463.096 186.546 461.685C186.547 460.196 186.546 458.708 186.544 457.22C186.543 453.181 186.567 449.142 186.594 445.103C186.619 440.882 186.622 436.66 186.627 432.439C186.639 424.446 186.672 416.452 186.712 408.459C186.757 399.359 186.779 390.259 186.799 381.158C186.841 362.439 186.911 343.719 187 325C186.226 325.004 185.451 325.007 184.653 325.011C165.817 325.099 146.98 325.166 128.143 325.207C119.034 325.228 109.925 325.256 100.816 325.302C92.8774 325.342 84.939 325.367 77.0004 325.376C72.796 325.382 68.5919 325.394 64.3876 325.423C60.4313 325.45 56.4754 325.458 52.5191 325.452C51.0662 325.454 49.6134 325.462 48.1606 325.477C46.1783 325.497 44.1959 325.49 42.2136 325.481C41.1038 325.485 39.9939 325.488 38.8505 325.492C36.0001 325 36.0001 325 33.6435 323.675C30.946 319.285 31.451 314.776 31.4921 309.726C31.4859 308.562 31.4796 307.397 31.4732 306.198C31.46 302.965 31.4648 299.733 31.4772 296.5C31.4862 293.014 31.4722 289.528 31.4612 286.041C31.4434 279.212 31.4473 272.383 31.4589 265.553C31.4679 260.003 31.4691 254.454 31.4648 248.904C31.4639 247.72 31.4639 247.72 31.4629 246.513C31.4617 244.909 31.4604 243.306 31.459 241.703C31.4476 226.662 31.4608 211.621 31.4822 196.58C31.5001 183.669 31.497 170.758 31.4786 157.847C31.4572 142.861 31.4487 127.874 31.461 112.888C31.4623 111.291 31.4635 109.693 31.4648 108.096C31.4657 106.917 31.4657 106.917 31.4667 105.714C31.4701 100.17 31.4643 94.6256 31.4549 89.0815C31.4437 82.3268 31.4467 75.5723 31.468 68.8176C31.4785 65.3699 31.4826 61.9226 31.4694 58.475C31.4585 54.7409 31.4721 51.0078 31.4921 47.2738C31.4832 46.1793 31.4743 45.0847 31.4651 43.957C31.5067 39.97 31.5415 36.9236 33.3272 33.3271C37.8108 31.1009 42.3404 31.4518 47.2739 31.4921ZM48.0001 48C48.0001 133.8 48.0001 219.6 48.0001 308C93.8701 308 139.74 308 187 308C187.21 269.63 187.21 269.63 187.388 231.261C187.438 223.847 187.438 223.847 187.465 220.379C187.481 217.952 187.492 215.525 187.497 213.097C187.507 209.425 187.535 205.753 187.568 202.081C187.566 200.996 187.565 199.91 187.563 198.792C187.576 197.805 187.588 196.819 187.601 195.803C187.606 194.943 187.611 194.082 187.615 193.196C188 191 188 191 189.225 189.225C191.544 187.625 192.994 187.616 195.803 187.601C197.282 187.582 197.282 187.582 198.792 187.563C200.42 187.565 200.42 187.565 202.081 187.568C203.241 187.557 204.401 187.547 205.596 187.537C209.36 187.507 213.123 187.497 216.887 187.488C219.207 187.473 221.527 187.456 223.847 187.438C232.461 187.38 241.074 187.348 249.688 187.313C278.552 187.158 278.552 187.158 308 187C308 141.13 308 95.26 308 48C222.2 48 136.4 48 48.0001 48ZM204 204C204 238.32 204 272.64 204 308C238.32 308 272.64 308 308 308C308 273.68 308 239.36 308 204C273.68 204 239.36 204 204 204ZM325 204C324.79 242.37 324.79 242.37 324.612 280.74C324.562 288.153 324.562 288.153 324.535 291.621C324.519 294.048 324.509 296.476 324.503 298.903C324.493 302.575 324.465 306.247 324.432 309.919C324.434 311.004 324.435 312.09 324.437 313.208C324.424 314.195 324.412 315.181 324.399 316.197C324.394 317.058 324.39 317.918 324.385 318.804C324 321 324 321 322.775 322.775C320.457 324.375 319.006 324.384 316.198 324.399C315.211 324.411 314.224 324.424 313.208 324.437C311.58 324.435 311.58 324.435 309.919 324.432C308.759 324.443 307.599 324.453 306.404 324.464C302.64 324.493 298.877 324.503 295.113 324.512C292.793 324.527 290.473 324.544 288.153 324.562C279.539 324.62 270.926 324.652 262.313 324.688C243.069 324.791 223.826 324.894 204 325C204 370.87 204 416.74 204 464C289.8 464 375.6 464 464 464C464 378.2 464 292.4 464 204C418.13 204 372.26 204 325 204Z" fill="black"/>
</svg>
