<svg width="512" height="512" viewBox="0 0 512 512" fill="none" xmlns="http://www.w3.org/2000/svg">
<path d="M181.006 393.379C182.763 393.369 182.763 393.369 184.554 393.359C187.777 393.347 191 393.356 194.223 393.376C197.709 393.391 201.195 393.378 204.681 393.368C211.499 393.353 218.317 393.366 225.135 393.387C233.08 393.411 241.026 393.409 248.971 393.407C263.15 393.403 277.329 393.424 291.507 393.458C305.256 393.491 319.005 393.505 332.753 393.499C347.739 393.492 362.725 393.495 377.711 393.514C378.503 393.515 379.296 393.516 380.113 393.518C381.705 393.52 383.297 393.522 384.89 393.524C390.424 393.531 395.959 393.531 401.494 393.53C408.24 393.529 414.986 393.538 421.732 393.562C425.172 393.574 428.612 393.581 432.052 393.575C435.784 393.571 439.515 393.586 443.248 393.606C444.33 393.6 445.413 393.595 446.529 393.589C454.034 393.657 461.18 394.451 466.75 400.063C474.692 409.142 474.608 419.074 474.467 430.55C474.438 433.127 474.446 435.701 474.459 438.277C474.453 439.938 474.444 441.598 474.434 443.258C474.437 444.016 474.439 444.775 474.443 445.556C474.308 453.28 472.01 459.712 466.746 465.461C461.44 470.138 455.118 472.121 448.145 472.131C447.163 472.135 446.182 472.139 445.171 472.143C444.095 472.142 443.02 472.141 441.912 472.14C440.195 472.145 440.195 472.145 438.443 472.149C435.266 472.157 432.089 472.159 428.911 472.16C425.484 472.162 422.057 472.169 418.631 472.176C411.137 472.19 403.643 472.196 396.149 472.2C391.468 472.203 386.788 472.207 382.108 472.212C369.147 472.224 356.185 472.234 343.224 472.238C342.395 472.238 341.565 472.238 340.711 472.238C339.463 472.239 339.463 472.239 338.191 472.239C336.506 472.239 334.821 472.24 333.137 472.24C331.883 472.241 331.883 472.241 330.604 472.241C317.066 472.245 303.528 472.262 289.991 472.286C276.088 472.309 262.185 472.322 248.282 472.323C240.478 472.324 232.674 472.33 224.869 472.348C218.223 472.363 211.576 472.368 204.93 472.36C201.54 472.356 198.151 472.359 194.762 472.371C191.082 472.384 187.403 472.378 183.723 472.368C182.659 472.376 181.594 472.384 180.498 472.392C172.574 472.339 164.83 471.32 158.688 465.875C158.073 465.357 157.458 464.839 156.824 464.305C151.858 458.03 150.394 451.498 150.504 443.652C150.502 442.796 150.501 441.94 150.5 441.058C150.501 439.262 150.513 437.466 150.533 435.671C150.563 432.941 150.554 430.213 150.541 427.482C150.547 425.727 150.556 423.971 150.566 422.215C150.564 421.409 150.561 420.604 150.558 419.774C150.676 412.561 152.35 405.863 157.383 400.372C164.494 394.338 171.985 393.274 181.006 393.379ZM168 416C167.512 418.806 167.319 420.991 167.371 423.785C167.369 424.523 167.366 425.261 167.364 426.022C167.365 427.576 167.378 429.13 167.403 430.684C167.437 433.059 167.424 435.431 167.404 437.807C167.411 439.32 167.421 440.834 167.434 442.348C167.429 443.055 167.424 443.762 167.419 444.491C167.5 447.913 167.76 449.697 169.91 452.416C173.02 454.774 174.713 455.126 178.558 455.134C180.007 455.141 180.007 455.141 181.485 455.148C182.553 455.148 183.622 455.147 184.723 455.147C185.852 455.151 186.982 455.155 188.145 455.158C191.955 455.169 195.765 455.173 199.575 455.177C202.297 455.183 205.018 455.19 207.739 455.197C215.924 455.217 224.108 455.227 232.293 455.236C236.145 455.24 239.997 455.245 243.85 455.251C256.651 455.268 269.453 455.282 282.254 455.289C285.577 455.291 288.9 455.293 292.223 455.295C293.049 455.296 293.875 455.296 294.726 455.297C308.112 455.305 321.497 455.33 334.883 455.363C348.618 455.396 362.353 455.414 376.089 455.417C383.804 455.419 391.518 455.428 399.233 455.453C405.802 455.475 412.371 455.483 418.941 455.474C422.293 455.469 425.645 455.473 428.998 455.49C432.631 455.508 436.263 455.501 439.896 455.488C440.958 455.499 442.02 455.51 443.114 455.521C448.919 455.473 448.919 455.473 454.132 453.095C458.517 448.179 457.301 441.295 457.35 435.025C457.367 433.472 457.394 431.919 457.432 430.366C457.487 428.123 457.509 425.881 457.523 423.637C457.557 422.602 457.557 422.602 457.592 421.547C457.577 418.101 457.117 416.171 455.161 413.317C450.504 409.904 446.48 410.306 440.84 410.365C439.7 410.357 438.56 410.349 437.386 410.341C433.557 410.321 429.729 410.337 425.9 410.353C423.159 410.349 420.418 410.338 417.676 410.326C410.998 410.304 404.321 410.309 397.643 410.324C392.216 410.335 386.789 410.336 381.362 410.331C380.589 410.33 379.817 410.329 379.022 410.329C377.453 410.327 375.884 410.325 374.315 410.324C359.604 410.309 344.892 410.326 330.18 410.353C317.555 410.375 304.93 410.371 292.304 410.348C277.645 410.321 262.986 410.311 248.327 410.326C246.764 410.328 245.201 410.329 243.639 410.331C242.87 410.332 242.101 410.332 241.308 410.333C235.887 410.338 230.466 410.33 225.046 410.319C218.44 410.305 211.834 410.308 205.229 410.335C201.858 410.348 198.488 410.351 195.117 410.337C191.464 410.323 187.812 410.34 184.16 410.365C183.092 410.354 182.024 410.343 180.924 410.331C174.947 410.411 171.619 410.721 168 416Z" fill="black"/>
<path d="M183.69 39.619C184.838 39.6144 185.987 39.6097 187.171 39.6049C191.005 39.5929 194.839 39.6024 198.674 39.6118C201.429 39.6094 204.184 39.6025 206.939 39.5959C213.637 39.5826 220.334 39.5854 227.032 39.5941C232.477 39.6009 237.922 39.6018 243.367 39.5986C244.143 39.5981 244.919 39.5976 245.718 39.5972C247.295 39.5962 248.872 39.5952 250.449 39.5942C265.221 39.5857 279.993 39.5955 294.765 39.6116C307.43 39.625 320.094 39.6227 332.759 39.6089C347.48 39.5928 362.2 39.5865 376.921 39.5957C378.492 39.5967 380.063 39.5976 381.633 39.5986C382.406 39.599 383.179 39.5995 383.975 39.6C389.411 39.6025 394.847 39.5982 400.284 39.5911C406.912 39.5827 413.54 39.585 420.168 39.601C423.547 39.6088 426.926 39.6103 430.306 39.602C433.974 39.5938 437.642 39.6041 441.311 39.619C442.372 39.6124 443.433 39.6057 444.526 39.5988C453.418 39.669 460.843 41.1147 467.496 47.3203C473.208 53.7 474.16 60.0639 474.238 68.3516C474.246 69.1656 474.255 69.9797 474.263 70.8185C474.277 72.5415 474.287 74.2647 474.295 75.9878C474.307 77.7353 474.327 79.4827 474.357 81.23C474.712 102.175 474.712 102.175 467.852 110.656C467.117 111.265 466.382 111.873 465.625 112.5C464.895 113.129 464.166 113.758 463.414 114.406C457.12 118.562 450.766 118.29 443.488 118.274C441.739 118.282 441.739 118.282 439.955 118.29C436.727 118.302 433.499 118.306 430.271 118.305C426.786 118.307 423.301 118.32 419.817 118.332C412.201 118.354 404.585 118.362 396.969 118.367C392.212 118.371 387.454 118.377 382.696 118.384C369.516 118.404 356.336 118.42 343.156 118.423C342.313 118.424 341.47 118.424 340.602 118.424C338.893 118.424 337.184 118.425 335.475 118.425C334.202 118.425 334.202 118.425 332.904 118.426C332.055 118.426 331.206 118.426 330.331 118.426C316.571 118.43 302.811 118.457 289.05 118.494C274.914 118.532 260.777 118.551 246.64 118.552C238.707 118.552 230.774 118.561 222.84 118.59C216.084 118.614 209.329 118.622 202.573 118.607C199.129 118.599 195.685 118.6 192.241 118.623C188.5 118.643 184.761 118.633 181.02 118.615C179.94 118.628 178.861 118.641 177.748 118.655C170.56 118.575 164.97 117.128 159 113C152.392 106.142 150.69 99.2873 150.664 89.9805C150.657 89.1225 150.651 88.2645 150.644 87.3804C150.634 85.571 150.629 83.7614 150.629 81.9519C150.625 79.2062 150.589 76.4622 150.551 73.7168C150.545 71.9505 150.541 70.1842 150.539 68.418C150.518 67.2035 150.518 67.2035 150.496 65.9644C150.55 59.0451 152.502 53.156 156.824 47.6953C157.439 47.1771 158.054 46.6589 158.688 46.125C159.591 45.3245 159.591 45.3245 160.512 44.5078C167.868 40.0503 175.263 39.5659 183.69 39.619ZM169 60C166.71 64.5797 167.689 71.316 167.65 76.4026C167.633 78.004 167.606 79.6053 167.568 81.2063C167.513 83.5194 167.491 85.8308 167.477 88.1445C167.454 88.8562 167.431 89.5678 167.408 90.301C167.423 93.7943 167.858 95.792 169.839 98.6889C174.497 102.094 178.524 101.694 184.16 101.635C185.3 101.643 186.44 101.651 187.614 101.659C191.443 101.679 195.271 101.663 199.1 101.647C201.841 101.651 204.582 101.662 207.324 101.674C214.002 101.696 220.68 101.691 227.358 101.676C232.785 101.665 238.212 101.664 243.639 101.669C244.411 101.67 245.183 101.671 245.979 101.671C247.547 101.673 249.116 101.675 250.685 101.676C265.397 101.691 280.108 101.674 294.82 101.647C307.445 101.625 320.071 101.629 332.696 101.652C347.355 101.679 362.014 101.689 376.673 101.674C378.236 101.672 379.799 101.671 381.362 101.669C382.131 101.668 382.9 101.668 383.692 101.667C389.113 101.662 394.534 101.67 399.955 101.681C406.56 101.695 413.166 101.692 419.772 101.665C423.142 101.652 426.513 101.649 429.884 101.663C433.536 101.677 437.188 101.66 440.841 101.635C442.442 101.652 442.442 101.652 444.076 101.669C448.849 101.605 451.227 101.568 455.158 98.6802C457.505 95.2651 457.707 92.4789 457.629 88.4688C457.633 87.3984 457.633 87.3984 457.636 86.3065C457.635 84.8037 457.622 83.3009 457.597 81.7983C457.563 79.5062 457.576 77.218 457.596 74.9258C457.589 73.4609 457.579 71.9961 457.566 70.5312C457.574 69.5107 457.574 69.5107 457.582 68.4696C457.465 63.7393 456.328 61.3311 453 58C450.602 56.8008 449.121 56.8726 446.442 56.8686C445.476 56.8647 444.51 56.8609 443.515 56.8569C442.447 56.8578 441.378 56.8587 440.277 56.8596C439.148 56.8566 438.019 56.8536 436.855 56.8506C433.045 56.8418 429.235 56.8404 425.425 56.8389C422.703 56.8348 419.982 56.8292 417.261 56.8238C409.85 56.8102 402.439 56.8042 395.028 56.7998C390.402 56.797 385.776 56.7928 381.151 56.7883C368.349 56.7761 355.548 56.7658 342.746 56.7624C341.926 56.7622 341.107 56.762 340.262 56.7618C339.44 56.7615 338.619 56.7613 337.772 56.7611C336.107 56.7607 334.442 56.7602 332.777 56.7598C331.951 56.7595 331.125 56.7593 330.274 56.7591C316.888 56.7551 303.503 56.7377 290.117 56.7144C276.382 56.6907 262.647 56.6782 248.911 56.6771C241.196 56.6761 233.482 56.6704 225.767 56.6522C219.198 56.6369 212.629 56.6317 206.06 56.64C202.707 56.6439 199.355 56.6413 196.002 56.6289C192.369 56.6163 188.737 56.622 185.104 56.6325C184.042 56.6245 182.98 56.6164 181.886 56.6081C174.93 56.5985 174.93 56.5985 169 60Z" fill="black"/>
<path d="M181.715 275.606C182.878 275.599 184.042 275.593 185.241 275.587C188.453 275.573 191.665 275.573 194.877 275.579C198.348 275.581 201.819 275.567 205.29 275.554C212.084 275.533 218.877 275.529 225.671 275.531C231.194 275.532 236.718 275.528 242.242 275.521C243.835 275.519 245.428 275.516 247.02 275.514C247.813 275.513 248.606 275.512 249.423 275.511C264.409 275.492 279.395 275.493 294.381 275.5C308.079 275.506 321.778 275.485 335.476 275.452C349.554 275.418 363.632 275.403 377.71 275.408C385.609 275.41 393.508 275.405 401.406 275.38C408.131 275.359 414.855 275.355 421.58 275.374C425.008 275.383 428.436 275.384 431.864 275.364C435.587 275.345 439.309 275.358 443.032 275.379C444.643 275.36 444.643 275.36 446.287 275.341C454.229 275.434 460.905 277.311 466.916 282.726C472.906 288.972 474.466 296.375 474.434 304.742C474.439 305.551 474.444 306.359 474.45 307.192C474.456 308.891 474.455 310.59 474.446 312.29C474.438 314.862 474.466 317.432 474.498 320.004C474.541 329.789 474.379 338.343 468.141 346.402C467.517 346.909 466.893 347.416 466.25 347.938C465.33 348.724 465.33 348.724 464.391 349.527C457.142 353.993 450.677 354.434 442.362 354.388C441.206 354.393 440.051 354.398 438.86 354.404C435.671 354.416 432.482 354.414 429.292 354.407C425.846 354.402 422.399 354.415 418.953 354.425C412.207 354.442 405.462 354.443 398.717 354.438C393.232 354.434 387.748 354.435 382.263 354.44C381.091 354.442 381.091 354.442 379.895 354.443C378.307 354.444 376.72 354.446 375.132 354.447C360.252 354.461 345.372 354.456 330.492 354.444C316.891 354.434 303.289 354.447 289.688 354.471C275.709 354.495 261.731 354.505 247.752 354.498C239.909 354.495 232.066 354.497 224.223 354.515C217.546 354.529 210.87 354.53 204.193 354.513C200.789 354.504 197.386 354.502 193.982 354.517C190.285 354.53 186.589 354.519 182.893 354.501C181.293 354.516 181.293 354.516 179.661 354.53C171.686 354.452 164.656 352.957 158.344 347.852C157.735 347.117 157.127 346.382 156.5 345.625C155.871 344.895 155.242 344.166 154.594 343.414C150.912 337.838 150.692 332.404 150.699 325.945C150.695 325.085 150.691 324.225 150.686 323.338C150.681 321.524 150.68 319.711 150.684 317.897C150.688 315.141 150.664 312.385 150.639 309.629C150.636 307.859 150.636 306.09 150.637 304.32C150.628 303.505 150.618 302.691 150.609 301.851C150.661 295.371 151.87 289.933 155.762 284.574C156.397 283.952 157.033 283.329 157.688 282.687C158.622 281.734 158.622 281.734 159.574 280.762C166.508 275.726 173.453 275.565 181.715 275.606ZM168 298C167.499 300.793 167.296 302.966 167.336 305.75C167.329 306.854 167.329 306.854 167.322 307.979C167.318 309.529 167.327 311.079 167.348 312.629C167.375 314.994 167.348 317.354 167.316 319.719C167.32 321.229 167.326 322.74 167.336 324.25C167.326 324.952 167.316 325.654 167.305 326.378C167.387 329.829 167.884 331.83 169.845 334.687C174.493 338.094 178.501 337.685 184.128 337.615C185.265 337.62 186.402 337.626 187.573 337.632C191.39 337.645 195.206 337.622 199.024 337.599C201.757 337.598 204.49 337.605 207.223 337.611C213.881 337.622 220.538 337.606 227.196 337.581C234.947 337.553 242.698 337.552 250.449 337.552C264.276 337.551 278.104 337.526 291.932 337.487C305.354 337.45 318.776 337.428 332.199 337.426C333.025 337.425 333.852 337.425 334.704 337.425C335.529 337.425 336.355 337.425 337.205 337.424C338.867 337.424 340.529 337.424 342.191 337.423C343.01 337.423 343.83 337.423 344.674 337.423C357.46 337.419 370.245 337.401 383.031 337.381C387.667 337.374 392.303 337.369 396.94 337.366C404.293 337.361 411.646 337.349 418.999 337.325C422.359 337.313 425.72 337.306 429.08 337.306C432.72 337.304 436.359 337.291 439.999 337.274C441.599 337.278 441.599 337.278 443.231 337.281C444.204 337.274 445.177 337.267 446.18 337.26C447.021 337.258 447.861 337.256 448.727 337.254C451.244 336.973 452.849 336.319 455 335C458.58 330.133 457.333 323.085 457.316 317.301C457.313 315.073 457.336 312.847 457.361 310.619C457.364 309.195 457.364 307.771 457.363 306.348C457.366 305.059 457.369 303.77 457.372 302.442C456.977 298.787 456.211 296.902 454 294C451.595 292.798 450.097 292.87 447.411 292.863C446.438 292.858 445.465 292.853 444.463 292.848C443.387 292.847 442.31 292.847 441.201 292.846C440.064 292.842 438.926 292.837 437.754 292.833C434.587 292.822 431.421 292.815 428.254 292.811C424.842 292.805 421.43 292.793 418.018 292.782C409.774 292.758 401.53 292.743 393.286 292.73C390.959 292.727 388.631 292.723 386.304 292.719C371.857 292.693 357.41 292.671 342.964 292.659C339.616 292.656 336.269 292.653 332.922 292.65C331.674 292.649 331.674 292.649 330.401 292.648C316.919 292.635 303.436 292.602 289.954 292.56C276.119 292.518 262.284 292.494 248.449 292.489C240.679 292.485 232.908 292.474 225.137 292.441C218.52 292.413 211.904 292.402 205.287 292.413C201.91 292.418 198.534 292.413 195.157 292.391C191.497 292.368 187.839 292.376 184.18 292.392C183.11 292.378 182.041 292.364 180.938 292.35C174.953 292.414 171.624 292.712 168 298Z" fill="black"/>
<path d="M182.639 157.612C184.372 157.604 184.372 157.604 186.14 157.596C189.329 157.584 192.518 157.586 195.708 157.593C199.154 157.598 202.601 157.585 206.047 157.575C212.793 157.558 219.538 157.557 226.284 157.562C231.768 157.566 237.253 157.565 242.737 157.56C243.519 157.559 244.3 157.558 245.105 157.557C246.693 157.556 248.281 157.554 249.868 157.553C264.748 157.539 279.628 157.544 294.508 157.556C308.11 157.566 321.711 157.553 335.313 157.529C349.291 157.505 363.27 157.495 377.248 157.502C385.091 157.505 392.934 157.503 400.777 157.485C407.454 157.471 414.13 157.47 420.807 157.487C424.211 157.496 427.615 157.498 431.018 157.483C434.715 157.47 438.411 157.481 442.108 157.499C443.707 157.484 443.707 157.484 445.34 157.47C453.14 157.546 460.121 158.998 466.402 163.859C466.909 164.483 467.416 165.107 467.938 165.75C468.725 166.67 468.725 166.67 469.527 167.609C473.37 173.847 474.461 179.569 474.434 186.742C474.439 187.551 474.444 188.359 474.45 189.192C474.456 190.891 474.455 192.59 474.446 194.29C474.438 196.862 474.466 199.432 474.498 202.004C474.541 211.774 474.417 220.399 468.106 228.402C467.473 228.909 466.84 229.416 466.188 229.938C465.25 230.724 465.25 230.724 464.293 231.527C457.278 236.033 451.596 236.433 443.399 236.388C442.236 236.393 441.072 236.398 439.874 236.404C436.657 236.416 433.441 236.414 430.225 236.407C426.751 236.402 423.277 236.415 419.803 236.425C413.003 236.442 406.202 236.443 399.401 236.438C393.872 236.434 388.343 236.435 382.815 236.44C382.027 236.441 381.24 236.442 380.428 236.443C378.829 236.444 377.229 236.446 375.629 236.447C360.632 236.461 345.635 236.456 330.638 236.444C316.925 236.434 303.213 236.447 289.501 236.471C275.413 236.495 261.325 236.505 247.237 236.498C239.331 236.495 231.425 236.497 223.519 236.515C216.788 236.529 210.057 236.53 203.327 236.513C199.895 236.504 196.463 236.502 193.031 236.517C189.305 236.53 185.581 236.519 181.855 236.501C180.238 236.516 180.238 236.516 178.589 236.53C170.899 236.455 164.994 234.843 158.695 230.359C158.177 229.828 157.659 229.297 157.125 228.75C156.325 227.969 156.325 227.969 155.508 227.172C151.287 221.092 150.54 214.962 150.567 207.785C150.561 206.93 150.556 206.075 150.551 205.194C150.544 203.396 150.545 201.599 150.554 199.801C150.563 197.073 150.534 194.347 150.502 191.619C150.5 189.862 150.501 188.105 150.504 186.348C150.493 185.544 150.482 184.741 150.47 183.913C150.553 177.027 152.504 171.095 156.859 165.695C157.483 165.177 158.107 164.659 158.75 164.125C159.67 163.324 159.67 163.324 160.609 162.508C167.811 157.966 174.338 157.566 182.639 157.612ZM168 180C167.499 182.793 167.296 184.966 167.336 187.75C167.329 188.854 167.329 188.854 167.322 189.979C167.318 191.529 167.327 193.079 167.348 194.629C167.375 196.994 167.348 199.354 167.317 201.719C167.32 203.229 167.326 204.74 167.336 206.25C167.326 206.952 167.316 207.654 167.305 208.378C167.387 211.828 167.884 213.83 169.843 216.687C174.5 220.099 178.528 219.688 184.166 219.621C185.878 219.631 185.878 219.631 187.623 219.641C191.454 219.656 195.284 219.636 199.116 219.615C201.859 219.616 204.602 219.624 207.345 219.632C214.026 219.647 220.708 219.634 227.389 219.613C235.168 219.589 242.947 219.591 250.726 219.593C264.604 219.597 278.482 219.576 292.359 219.542C305.83 219.509 319.301 219.495 332.771 219.501C347.437 219.508 362.102 219.505 376.767 219.486C377.93 219.484 377.93 219.484 379.116 219.482C380.673 219.48 382.23 219.478 383.787 219.476C389.212 219.469 394.636 219.469 400.06 219.47C406.669 219.471 413.277 219.462 419.885 219.438C423.258 219.426 426.63 219.421 430.003 219.425C433.656 219.429 437.308 219.414 440.961 219.394C442.031 219.4 443.102 219.405 444.205 219.411C445.182 219.402 446.158 219.392 447.165 219.383C448.43 219.381 448.43 219.381 449.72 219.378C452.558 218.907 453.921 217.965 456 216C457.776 210.672 457.186 204.902 457.185 199.322C457.188 197.074 457.206 194.827 457.225 192.58C457.228 191.148 457.23 189.717 457.231 188.285C457.235 186.985 457.239 185.684 457.243 184.344C457.015 181.2 456.856 179.508 455 177C451.978 175.149 449.698 174.748 446.18 174.74C445.207 174.733 444.234 174.726 443.231 174.719C442.164 174.721 441.098 174.723 439.999 174.726C438.864 174.721 437.729 174.715 436.559 174.71C432.741 174.695 428.924 174.694 425.106 174.694C422.374 174.687 419.643 174.678 416.912 174.668C409.482 174.646 402.053 174.638 394.623 174.633C389.985 174.629 385.347 174.623 380.709 174.616C367.869 174.596 355.03 174.58 342.191 174.577C341.369 174.576 340.547 174.576 339.701 174.576C338.035 174.576 336.37 174.575 334.704 174.575C333.877 174.575 333.05 174.575 332.199 174.574C331.371 174.574 330.543 174.574 329.69 174.574C316.269 174.57 302.848 174.543 289.427 174.506C275.651 174.468 261.875 174.449 248.099 174.448C240.363 174.448 232.627 174.439 224.891 174.41C218.305 174.386 211.72 174.378 205.134 174.393C201.773 174.401 198.414 174.397 195.053 174.377C191.411 174.357 187.77 174.367 184.128 174.385C183.064 174.372 182 174.359 180.903 174.345C174.929 174.414 171.62 174.728 168 180Z" fill="black"/>
<path d="M107 36C108.268 36.6187 108.268 36.6187 109.563 37.25C120.802 43.2809 128.075 52.9596 132 65C135.157 78.0034 134.307 91.0364 128 103C120.442 114.79 110.189 122.71 96.625 126.312C82.4032 128.919 69.0362 125.934 57 118C46.934 111.015 41.2111 100.274 38.418 88.5586C36.3383 75.8276 38.5232 62.6171 46 52C60.1401 33.5267 85.3156 24.5871 107 36ZM65 56C58.1188 63.2723 54.5477 71.4718 54.7305 81.4766C55.7115 90.6609 60.0135 98.0626 67 104C75.2153 109.156 82.8798 111.216 92.4922 109.574C101.131 107.381 107.507 102.738 112.438 95.3125C116.562 87.6979 117.785 80.2375 116 71.75C113.507 63.3737 108.222 56.8857 101 52C88.6439 45.6355 75.7968 47.5341 65 56Z" fill="black"/>
<path d="M110.781 391.437C123.088 400.104 130.82 410.745 133.465 425.613C135.304 439.892 131.115 451.888 123.254 463.602C116.644 471.875 106.275 477.759 96 480C81.4368 481.406 68.342 480.076 56.3828 471.039C45.4773 461.707 38.905 450.603 37.7812 436.195C37.3418 422.096 41.6513 410.213 50.6172 399.461C66.11 383.46 91.6012 379.763 110.781 391.437ZM61 414C55.8439 422.215 53.7835 429.88 55.4258 439.492C57.6265 448.16 62.2744 454.529 69.75 459.437C77.4756 463.64 85.0987 464.907 93.6562 462.754C102.245 459.991 108.865 455.26 113.312 447.25C116.995 438.991 118.049 430.591 115 422C111.306 413.716 105.942 407.919 97.7734 403.906C84.1984 398.726 70.2941 403.063 61 414Z" fill="black"/>
<path d="M115.598 276.938C126.255 285.94 132.041 296.557 133.813 310.313C134.71 324.51 130.257 337.114 121.125 348C111.228 358.22 99.4115 362.413 85.3125 363.031C72.6552 362.912 61.2332 358.116 52.1836 349.313C42.1641 338.701 37.6085 326.822 37.7891 312.215C38.6711 298.772 44.3554 287.507 54.0938 278.297C72.2665 263.935 96.8454 262.951 115.598 276.938ZM60.6875 296.813C55.3597 304.449 53.8365 312.365 55.4336 321.473C57.6157 330.242 62.3186 336.597 69.9375 341.438C77.9911 345.804 84.9405 346.931 94 345C102.652 341.961 109.94 336.324 114.215 328.07C117.22 320.146 117.891 312.008 115 304C110.738 294.611 105.005 289.411 95.5 285.625C81.9998 281.187 69.4846 285.962 60.6875 296.813Z" fill="black"/>
<path d="M119 162C128.371 170.488 132.632 181.903 133.883 194.293C134.318 208.063 130.236 219.835 121 230C111.645 239.86 99.6405 244.771 86.1876 245.312C72.9428 244.96 61.4858 240.443 51.7501 231.5C41.9542 221.158 37.4493 208.231 37.754 194.109C38.7891 181.03 44.0126 169.976 53.5782 161.004C73.2329 144.741 99.7461 145.457 119 162ZM62.211 176.816C56.8891 183.305 54.2899 191.253 54.6602 199.652C55.9831 208.791 59.9742 216.019 67.0001 222C74.1096 226.523 81.4917 229.037 90.0001 228C100.323 225.267 106.972 221.254 112.738 212.281C117.458 203.747 117.689 196.176 115.074 186.863C111.967 178.582 105.358 172.431 97.7501 168.188C84.4262 163.968 72.1131 166.763 62.211 176.816Z" fill="black"/>
</svg>
